<svg width="440" height="440" viewBox="0 0 440 440" fill="none" xmlns="http://www.w3.org/2000/svg">
<g clip-path="url(#clip0_14_12)">
<path d="M346.775 231.275C332.97 229.264 319.512 225.34 306.79 219.615C346.047 185.096 386.921 152.463 429.275 121.825L432.025 119.9L433.675 116.875C441.312 100.783 443.39 82.6107 439.582 65.2104C435.775 47.8101 426.297 32.1664 412.638 20.7347C399.999 9.01821 383.921 1.68541 366.788 -0.177027C349.654 -2.03946 332.376 1.66756 317.515 10.3947L314.05 14.0522C272.895 71.205 227.795 125.411 179.08 176.275C127.171 222.472 71.8486 264.685 13.5851 302.555L2.75014 309.375V315.7C-1.34158 332.861 -1.74138 350.696 1.57719 368.024C4.89577 385.352 11.857 401.777 22.0001 416.212C29.795 424.33 39.2578 430.66 49.7358 434.767C60.2138 438.873 71.4579 440.659 82.6926 440C92.3014 440.511 101.876 438.489 110.457 434.135C119.038 429.782 126.325 423.25 131.588 415.195C138.325 406.725 188.375 343.475 241.725 285.725C249.095 298.485 254.815 313.307 258.06 329.037C261.531 357.726 257.758 386.827 247.088 413.682L293.425 357.5L330 385C328.966 353.819 323.56 322.938 313.94 293.26C307.187 280.989 298.714 269.746 288.778 259.875C299.943 269.39 312.73 277.557 326.508 283.91C352.358 293.205 381.205 299.64 411.098 302.39L385 267.575L440 220C415.324 227.933 389.553 231.933 363.633 231.852C357.693 231.852 351.808 231.66 345.978 231.247L346.775 231.275ZM334.4 32.4497C341.603 28.9073 349.528 27.0812 357.555 27.1147C371.47 27.1147 384.12 32.5047 393.553 41.3047C402.317 48.3214 408.624 57.9413 411.565 68.776C414.506 79.6108 413.928 91.0998 409.915 101.585C396.55 110.027 345.4 148.802 295.9 192.527C294.485 178.742 287.926 165.996 277.53 156.832C272.876 152.84 267.437 149.866 261.564 148.104C255.691 146.342 249.513 145.831 243.43 146.602C275.475 109.955 305.83 71.8649 334.4 32.4497ZM74.2501 324.775C76.3647 323.304 78.8794 322.517 81.4551 322.52L82.5551 322.575H84.4251C89.3476 324.005 93.6101 326.48 97.1026 329.752L73.1501 349.525C70.1823 343.415 69.0458 336.576 69.8776 329.835C70.6467 327.673 72.1967 325.878 74.2226 324.802L74.2501 324.775ZM110 398.75C107.294 403.539 103.214 407.406 98.2874 409.853C93.3606 412.299 87.8134 413.211 82.3626 412.472C74.8818 413.162 67.3409 412.188 60.2807 409.621C53.2204 407.054 46.8155 402.956 41.5251 397.622C31.0299 381.997 25.4466 363.59 25.4926 344.767C25.4926 337.865 26.2351 331.155 27.6101 324.692L47.0251 312.125C44.4401 315.975 42.5151 320.485 41.5526 325.352C40.0165 344.468 45.2218 363.518 56.2651 379.197L66.0001 391.297L112.75 352.797C117.433 368.085 116.397 384.554 109.835 399.135L110 398.75ZM133.65 331.375C124.274 314.926 109.214 302.467 91.3001 296.34C89.3476 296.01 87.7251 295.9 86.0751 295.9C84.4251 295.9 82.8026 296.01 81.2076 296.175C78.0095 295.814 74.7808 295.814 71.5826 296.175C109.674 270.262 146.288 242.242 181.253 212.245C192.198 214.197 203.583 219.12 212.355 226.902C220.523 235.51 225.555 247.225 225.555 260.15L225.5 262.735C196.648 293.691 169.124 325.859 143 359.15C141.626 349.214 138.288 339.651 133.183 331.017L133.65 331.375Z" fill="#2860B5" fill-opacity="0.4"/>
</g>
<defs>
<clipPath id="clip0_14_12">
<rect width="440" height="440" fill="white"/>
</clipPath>
</defs>
</svg>
